<?xml version="1.0" standalone="no"?>
<!DOCTYPE svg PUBLIC "-//W3C//DTD SVG 20010904//EN"
 "http://www.w3.org/TR/2001/REC-SVG-20010904/DTD/svg10.dtd">
<svg version="1.0" xmlns="http://www.w3.org/2000/svg"
 width="300.000000pt" height="170.000000pt" viewBox="0 0 300.000000 170.000000"
 preserveAspectRatio="xMidYMid meet">
<metadata>
Created by potrace 1.10, written by Peter Selinger 2001-2011
</metadata>
<g transform="translate(0.000000,170.000000) scale(0.100000,-0.100000)"
fill="#000000" stroke="none">
<path d="M1360 1687 c-41 -21 -62 -28 -55 -17 10 17 -59 11 -85 -7 -17 -12
-25 -13 -28 -5 -2 8 -8 7 -19 -3 -20 -21 -32 -19 -26 5 4 14 0 20 -10 20 -9 0
-19 -9 -22 -20 -7 -23 -21 -26 -28 -7 -3 7 -6 5 -6 -5 -1 -11 -9 -18 -23 -19
-13 0 -45 -9 -73 -19 -48 -17 -49 -18 -25 -28 14 -5 26 -6 28 -1 5 13 36 11
51 -3 11 -11 12 -9 6 10 -4 13 -2 22 4 22 6 0 11 -6 11 -12 1 -9 4 -8 13 2 21
25 58 43 69 32 11 -11 85 3 104 19 7 6 28 7 47 4 23 -5 45 -1 67 10 22 11 35
13 44 6 7 -6 36 -16 65 -22 30 -6 69 -20 87 -31 18 -11 37 -17 42 -14 4 2 14
1 22 -4 12 -7 12 -10 -3 -16 -9 -3 -25 0 -34 7 -14 12 -16 12 -11 -1 3 -10 17
-15 44 -14 24 1 42 -3 47 -12 7 -12 12 -11 32 2 37 24 77 20 109 -10 16 -14
38 -25 50 -25 20 2 20 2 -1 6 -13 2 -23 9 -23 14 0 5 -6 9 -14 9 -12 0 -26 20
-26 36 0 2 17 3 38 2 22 0 44 2 51 6 20 13 1 26 -39 26 -29 0 -43 -6 -54 -22
-18 -25 -21 -17 -6 13 6 10 7 19 2 19 -5 0 -14 -12 -20 -26 -7 -14 -16 -23
-20 -20 -5 3 -22 -3 -39 -14 -30 -18 -31 -18 -36 0 -3 13 0 17 9 13 7 -2 28 4
46 14 18 10 34 19 36 20 7 3 -19 43 -28 43 -6 0 -10 -12 -11 -27 0 -27 -1 -27
-9 -5 -13 32 -21 27 -14 -8 4 -19 2 -30 -5 -30 -6 0 -11 7 -11 17 0 14 -2 15
-17 1 -21 -18 -44 -13 -36 8 6 16 -10 18 -38 4 -16 -9 -19 -7 -19 10 0 23 -10
26 -28 8 -9 -9 -12 -8 -12 6 0 15 -6 17 -30 14 -16 -3 -30 0 -30 5 0 5 -7 7
-15 3 -8 -3 -15 0 -15 5 0 6 -9 9 -20 6 -11 -3 -20 -1 -20 4 0 12 -10 11 -40
-4z"/>
<path d="M1333 1642 c-23 -9 -45 -21 -50 -26 -4 -5 -2 -6 7 -3 8 3 34 12 58
19 23 7 42 16 42 20 0 11 -9 9 -57 -10z"/>
<path d="M1403 1640 c2 -8 13 -14 25 -13 26 3 36 -22 16 -42 -9 -8 -11 -15 -6
-15 5 0 16 10 25 23 12 19 12 24 0 35 -8 8 -21 11 -30 8 -9 -4 -20 -1 -25 6
-7 10 -8 9 -5 -2z"/>
<path d="M1210 1620 c-8 -5 -12 -11 -9 -14 2 -3 11 -1 19 4 8 5 12 11 9 14 -2
3 -11 1 -19 -4z"/>
<path d="M1125 1610 c-3 -5 -1 -10 4 -10 6 0 11 5 11 10 0 6 -2 10 -4 10 -3 0
-8 -4 -11 -10z"/>
<path d="M1160 1605 c-11 -13 -10 -14 4 -9 9 3 16 10 16 15 0 13 -6 11 -20 -6z"/>
<path d="M1245 1610 c-3 -6 1 -7 9 -4 18 7 21 14 7 14 -6 0 -13 -4 -16 -10z"/>
<path d="M1084 1596 c-8 -22 -2 -27 16 -16 12 7 12 12 3 21 -10 10 -14 9 -19
-5z"/>
<path d="M1871 1591 c-16 -10 2 -18 84 -35 42 -9 68 -10 83 -3 38 17 25 30
-24 23 -26 -3 -52 -2 -58 3 -17 13 -70 21 -85 12z"/>
<path d="M1120 1581 c0 -5 5 -13 10 -16 6 -3 10 -2 10 4 0 5 -4 13 -10 16 -5
3 -10 2 -10 -4z"/>
<path d="M1495 1564 c-12 -19 -13 -22 -1 -18 8 3 17 12 20 19 3 8 13 11 25 8
12 -3 21 -1 21 3 0 20 -50 11 -65 -12z"/>
<path d="M955 1560 c3 -5 -3 -10 -14 -10 -25 0 -27 -13 -6 -30 17 -14 20 -30
4 -30 -5 0 -7 5 -4 10 9 14 -5 12 -35 -5 -21 -12 -22 -14 -6 -15 18 0 18 -1 1
-20 -18 -19 -17 -20 4 -20 12 0 20 -4 16 -9 -3 -5 5 -17 17 -25 21 -15 21 -16
3 -16 -11 0 -27 4 -35 9 -18 12 -31 5 -24 -14 6 -15 50 -15 73 -1 9 6 9 11 0
22 -19 23 -5 26 18 4 21 -19 21 -19 26 1 3 10 2 17 -3 14 -11 -7 -72 25 -68
37 2 5 8 8 13 6 6 -2 9 -6 8 -10 -2 -5 2 -8 8 -8 6 0 8 7 5 16 -8 20 12 57 25
48 6 -3 8 -12 5 -19 -3 -8 1 -19 9 -25 11 -9 12 -7 8 12 -3 13 -10 28 -14 34
-5 6 -6 14 -2 17 3 4 1 7 -5 7 -7 0 -12 -4 -12 -10 0 -5 -5 -10 -12 -10 -6 0
-4 7 5 18 16 18 14 32 -5 32 -5 0 -6 -4 -3 -10z"/>
<path d="M990 1559 c0 -6 7 -9 15 -5 8 3 15 1 15 -4 0 -6 -4 -10 -10 -10 -5 0
-10 -5 -10 -11 0 -8 5 -8 15 1 21 18 19 40 -5 40 -11 0 -20 -5 -20 -11z"/>
<path d="M1060 1560 c0 -5 5 -10 11 -10 5 0 7 5 4 10 -3 6 -8 10 -11 10 -2 0
-4 -4 -4 -10z"/>
<path d="M1155 1560 c3 -5 8 -10 11 -10 2 0 4 5 4 10 0 6 -5 10 -11 10 -5 0
-7 -4 -4 -10z"/>
<path d="M1232 1558 c-7 -7 -12 -17 -12 -22 0 -6 5 -3 11 7 7 12 17 16 32 12
17 -5 19 -4 7 4 -19 14 -23 14 -38 -1z"/>
<path d="M1320 1551 c0 -19 53 -28 82 -13 38 19 35 22 -8 9 -27 -8 -40 -8 -55
1 -10 7 -19 8 -19 3z"/>
<path d="M1176 1543 c-3 -3 -3 -10 0 -14 7 -12 34 -11 34 0 0 11 -26 22 -34
14z"/>
<path d="M1440 1539 c0 -5 5 -7 10 -4 6 3 10 8 10 11 0 2 -4 4 -10 4 -5 0 -10
-5 -10 -11z"/>
<path d="M1527 1530 c3 -11 9 -22 13 -25 5 -3 6 4 3 15 -3 11 -9 22 -13 25 -5
3 -6 -4 -3 -15z"/>
<path d="M1905 1534 l-30 -13 30 6 c32 6 41 11 34 17 -2 2 -17 -2 -34 -10z"/>
<path d="M2107 1543 c-8 -13 -57 -23 -57 -12 0 5 -7 9 -15 9 -13 0 -14 -4 -5
-20 6 -11 21 -20 33 -20 28 1 60 25 55 41 -3 9 -6 10 -11 2z"/>
<path d="M1976 1531 c-4 -6 -4 -11 1 -11 4 -1 -5 -7 -22 -15 -24 -12 -25 -13
-5 -8 14 4 36 7 49 6 16 -1 20 2 11 7 -7 4 -16 13 -20 20 -5 9 -9 9 -14 1z"/>
<path d="M1073 1513 c-13 -8 -23 -24 -23 -34 0 -10 -9 -21 -20 -24 -11 -3 -20
-14 -20 -23 0 -11 3 -13 8 -6 4 6 17 16 29 22 15 9 20 18 15 34 -4 17 -2 20
11 15 11 -4 17 -1 17 8 0 9 6 12 17 8 11 -4 14 -3 9 5 -9 15 -16 14 -43 -5z"/>
<path d="M1135 1520 c4 -6 10 -8 15 -5 5 3 11 1 15 -5 3 -5 11 -10 18 -10 15
0 -25 29 -41 30 -7 0 -10 -5 -7 -10z"/>
<path d="M2097 1492 c-22 -24 -21 -27 3 -29 11 -1 20 3 20 8 0 6 -4 7 -10 4
-5 -3 -10 -1 -10 5 0 13 43 3 48 -11 4 -11 56 -12 65 -2 6 6 -26 21 -83 39 -9
3 -23 -3 -33 -14z"/>
<path d="M1430 1486 c0 -9 5 -16 10 -16 6 0 10 4 10 9 0 6 -4 13 -10 16 -5 3
-10 -1 -10 -9z"/>
<path d="M1902 1488 c-7 -7 -12 -18 -12 -25 0 -7 -6 -13 -14 -13 -8 0 -16 -7
-20 -15 -5 -13 -2 -13 25 0 16 9 27 20 23 26 -3 5 0 16 6 24 15 18 9 20 -8 3z"/>
<path d="M1220 1480 c0 -5 4 -10 9 -10 6 0 13 5 16 10 3 6 -1 10 -9 10 -9 0
-16 -4 -16 -10z"/>
<path d="M1265 1480 c3 -5 10 -10 16 -10 5 0 9 5 9 10 0 6 -7 10 -16 10 -8 0
-12 -4 -9 -10z"/>
<path d="M1397 1476 c-4 -10 -1 -13 9 -9 15 6 19 23 5 23 -5 0 -11 -7 -14 -14z"/>
<path d="M1190 1465 c0 -8 2 -15 4 -15 2 0 6 7 10 15 3 8 1 15 -4 15 -6 0 -10
-7 -10 -15z"/>
<path d="M1300 1470 c0 -5 7 -10 16 -10 8 0 12 5 9 10 -3 6 -10 10 -16 10 -5
0 -9 -4 -9 -10z"/>
<path d="M1345 1470 c-3 -5 3 -10 15 -10 12 0 18 5 15 10 -3 6 -10 10 -15 10
-5 0 -12 -4 -15 -10z"/>
<path d="M1465 1470 c3 -5 8 -10 11 -10 2 0 4 5 4 10 0 6 -5 10 -11 10 -5 0
-7 -4 -4 -10z"/>
<path d="M1560 1471 c0 -5 7 -12 16 -15 14 -5 15 -4 4 9 -14 17 -20 19 -20 6z"/>
<path d="M1973 1463 c-7 -2 -13 -13 -13 -24 0 -16 3 -18 19 -9 28 14 44 12 37
-5 -4 -11 1 -15 17 -15 13 0 33 -9 44 -20 15 -13 23 -16 26 -7 3 7 10 -1 17
-18 12 -29 12 -30 21 -7 4 12 13 22 19 22 8 0 8 -6 0 -20 -9 -17 -6 -21 23
-34 35 -14 87 -18 87 -7 0 4 8 7 18 7 9 1 26 4 37 8 16 6 17 6 5 -3 -13 -9
-12 -11 3 -11 10 0 15 -4 12 -10 -3 -5 -1 -10 5 -10 7 0 9 7 6 16 -5 12 -2 15
10 10 8 -3 24 -6 35 -6 30 0 22 -20 -8 -21 -16 -1 -5 -5 22 -9 28 -4 57 -10
65 -13 18 -8 48 8 37 20 -5 4 -11 3 -15 -3 -4 -7 -15 -8 -27 -4 -19 7 -18 8 6
14 14 4 32 6 40 4 9 -2 13 4 11 17 -5 31 -22 43 -22 16 l0 -23 -19 23 c-11 13
-23 21 -27 17 -4 -4 -1 -14 6 -23 10 -13 9 -15 -7 -15 -10 0 -24 5 -29 10 -6
6 -27 11 -48 12 -25 1 -34 4 -26 12 19 19 10 25 -22 14 -18 -6 -38 -15 -44
-19 -6 -5 -13 -7 -15 -5 -2 2 -23 1 -46 -4 -36 -6 -43 -5 -43 9 0 14 -2 14
-10 1 -8 -12 -10 -9 -8 10 3 22 -1 25 -26 25 -16 0 -31 5 -33 12 -2 7 -10 10
-18 7 -8 -3 -19 3 -26 14 -7 11 -18 18 -24 16 -7 -3 -18 2 -25 11 -10 12 -16
13 -27 4 -11 -10 -12 -9 -7 5 7 17 6 17 -13 9z"/>
<path d="M1166 1451 c-4 -6 -12 -8 -19 -5 -7 2 -22 -4 -33 -15 -12 -11 -32
-21 -45 -23 -13 -1 -24 -7 -23 -13 1 -5 -6 -15 -15 -22 -10 -8 -12 -12 -4 -13
7 0 18 9 25 20 7 11 20 20 29 20 9 0 22 7 29 15 7 8 20 15 29 15 21 0 47 17
39 25 -3 4 -9 2 -12 -4z"/>
<path d="M1820 1440 c-14 -10 -23 -21 -20 -23 3 -2 16 6 30 19 30 29 25 31
-10 4z"/>
<path d="M1497 1430 c3 -11 7 -20 9 -20 2 0 4 9 4 20 0 11 -4 20 -9 20 -5 0
-7 -9 -4 -20z"/>
<path d="M2115 1440 c3 -5 8 -10 11 -10 2 0 4 5 4 10 0 6 -5 10 -11 10 -5 0
-7 -4 -4 -10z"/>
<path d="M2160 1442 c0 -29 71 -55 85 -32 4 6 -7 10 -27 10 -22 0 -28 3 -20 9
11 7 10 10 -3 15 -23 8 -35 8 -35 -2z"/>
<path d="M1640 1425 c-7 -9 -10 -18 -6 -22 3 -3 6 0 6 8 0 11 2 11 10 -1 8
-12 10 -11 10 8 0 26 -3 27 -20 7z"/>
<path d="M2081 1431 c-8 -6 -9 -11 -3 -15 6 -3 14 -1 17 5 9 14 2 20 -14 10z"/>
<path d="M1589 1418 c7 -10 11 -28 7 -41 -4 -18 -1 -23 14 -24 11 -1 20 2 20
8 0 5 5 9 11 9 6 0 8 -7 5 -16 -5 -14 -4 -15 9 -4 14 11 19 7 16 -13 -1 -4 7
-4 16 1 10 5 24 7 31 5 7 -3 10 1 6 11 -3 9 -11 13 -16 10 -7 -5 -9 5 -6 25 5
35 -3 39 -23 14 -10 -11 -10 -14 -1 -9 8 5 12 1 12 -12 0 -18 -4 -18 -40 -9
-22 6 -40 16 -40 23 0 6 -8 18 -17 25 -16 13 -17 12 -4 -3z"/>
<path d="M1520 1401 c0 -5 7 -11 14 -14 10 -4 13 -1 9 9 -6 15 -23 19 -23 5z"/>
<path d="M1763 1388 c-18 -5 -33 -13 -33 -19 0 -6 6 -7 13 -2 6 4 21 9 31 10
11 2 22 6 25 8 10 10 -5 12 -36 3z"/>
<path d="M2190 1376 c0 -14 34 -28 44 -18 9 8 -14 32 -30 32 -8 0 -14 -6 -14
-14z"/>
<path d="M820 1355 c0 -14 -4 -25 -10 -25 -5 0 -10 5 -10 11 0 5 -4 7 -10 4
-5 -3 -10 1 -10 9 0 9 -4 16 -10 16 -5 0 -10 -6 -10 -14 0 -16 -21 -26 -53
-26 -18 0 -19 -2 -7 -10 15 -10 7 -10 -95 6 -36 6 -38 5 -26 -10 7 -9 24 -16
38 -16 14 0 21 -4 18 -10 -3 -5 -15 -10 -26 -10 -10 0 -19 5 -19 10 0 6 -7 10
-15 10 -8 0 -15 -5 -15 -10 0 -6 -8 -5 -20 2 -23 15 -35 6 -26 -19 10 -24 7
-29 -16 -25 -17 3 -18 1 -8 -18 10 -18 9 -21 -1 -14 -17 10 -61 15 -55 5 3 -4
-9 -6 -27 -4 -28 4 -30 2 -16 -9 14 -11 15 -17 4 -31 -16 -22 -21 -21 -28 3
-3 11 -10 20 -16 20 -8 0 -9 -6 -2 -18 9 -17 6 -18 -41 -14 -36 3 -49 1 -44
-7 4 -6 16 -11 26 -11 31 0 54 -12 40 -20 -8 -5 -1 -10 19 -15 18 -4 35 -13
38 -20 2 -8 11 -11 18 -9 19 8 -13 44 -37 44 -10 0 -18 5 -18 10 0 6 11 10 24
10 13 0 29 6 36 14 6 8 17 13 24 10 7 -3 30 5 51 18 27 15 40 18 43 10 2 -7
12 -12 22 -12 9 0 23 -7 30 -15 7 -9 15 -13 18 -11 7 7 -28 40 -46 42 -31 5
-31 21 -2 49 16 16 33 25 37 21 4 -4 1 -11 -7 -16 -24 -15 -6 -11 29 6 18 9
48 16 68 16 25 0 32 3 22 9 -12 7 -12 9 1 9 8 0 27 6 42 14 15 8 36 12 48 9
11 -3 26 0 34 6 12 10 13 8 9 -11 -5 -22 -5 -22 10 -3 8 10 13 25 10 32 -3 7
0 13 7 13 6 0 8 -4 5 -10 -3 -5 1 -10 9 -10 18 0 21 16 6 25 -6 4 -22 8 -35
11 -21 4 -25 1 -25 -21z m-352 -159 c-7 -7 -19 -11 -27 -8 -11 4 -10 7 5 13
29 12 36 10 22 -5z"/>
<path d="M1850 1368 c0 -4 16 -8 35 -8 19 0 35 2 35 4 0 2 -16 6 -35 8 -19 2
-35 0 -35 -4z"/>
<path d="M1542 1349 c-8 -12 -8 -20 -2 -24 6 -3 10 -1 10 6 0 6 7 17 16 24 14
10 14 12 2 12 -9 0 -20 -8 -26 -18z"/>
<path d="M1818 1351 c-8 -12 -18 -18 -21 -14 -4 3 -7 1 -7 -5 0 -7 4 -12 8
-12 13 0 46 39 40 46 -3 3 -12 -4 -20 -15z"/>
<path d="M1982 1360 c-12 -5 -30 -6 -39 -3 -11 4 -14 3 -9 -6 5 -8 19 -10 37
-6 18 4 36 2 44 -5 11 -9 15 -9 15 -1 0 6 -5 11 -11 11 -5 0 -7 5 -4 10 7 12
-2 12 -33 0z"/>
<path d="M940 1350 c13 -8 12 -10 -2 -10 -10 0 -18 -4 -18 -10 0 -5 3 -9 8 -8
4 1 22 -3 40 -9 37 -14 44 -41 10 -39 -26 2 -50 -12 -42 -25 3 -5 -5 -10 -18
-11 -13 0 -29 -2 -37 -2 -8 -1 -18 -10 -22 -21 -13 -34 -9 -41 9 -18 10 14 30
23 50 25 19 1 40 10 46 20 7 10 16 15 20 11 6 -6 35 25 36 39 0 13 -33 39 -45
34 -7 -2 -15 4 -18 15 -3 10 -11 19 -19 19 -10 0 -9 -3 2 -10z"/>
<path d="M1200 1344 c0 -13 -3 -14 -15 -4 -12 10 -15 10 -15 -3 0 -25 16 -28
34 -8 11 13 14 21 7 26 -6 3 -11 -1 -11 -11z"/>
<path d="M1230 1350 c0 -5 5 -10 11 -10 5 0 7 5 4 10 -3 6 -8 10 -11 10 -2 0
-4 -4 -4 -10z"/>
<path d="M1270 1350 c0 -5 5 -10 10 -10 6 0 10 5 10 10 0 6 -4 10 -10 10 -5 0
-10 -4 -10 -10z"/>
<path d="M1030 1347 c0 -2 19 -19 43 -37 37 -29 39 -30 17 -6 -23 25 -60 52
-60 43z"/>
<path d="M1387 1333 c-4 -3 -7 -13 -7 -22 1 -13 3 -13 11 2 11 19 8 33 -4 20z"/>
<path d="M1425 1329 c-10 -15 3 -25 16 -12 7 7 7 13 1 17 -6 3 -14 1 -17 -5z"/>
<path d="M895 1320 c-3 -5 -1 -10 4 -10 6 0 11 5 11 10 0 6 -2 10 -4 10 -3 0
-8 -4 -11 -10z"/>
<path d="M1336 1305 c4 -8 8 -15 10 -15 2 0 4 7 4 15 0 8 -4 15 -10 15 -5 0
-7 -7 -4 -15z"/>
<path d="M1493 1310 c-13 -5 -22 -17 -22 -27 1 -17 2 -17 6 0 2 9 11 17 18 17
8 0 17 5 20 10 7 12 7 12 -22 0z"/>
<path d="M1745 1293 l-18 -28 27 24 c28 26 31 31 17 31 -5 0 -17 -12 -26 -27z"/>
<path d="M2070 1317 c0 -3 12 -12 26 -22 15 -9 23 -12 20 -6 -7 11 -46 35 -46
28z"/>
<path d="M2183 1295 c0 -11 4 -12 14 -4 7 6 13 13 13 15 0 2 -6 4 -13 4 -8 0
-14 -7 -14 -15z"/>
<path d="M2275 1300 c-3 -5 -2 -10 4 -10 5 0 13 5 16 10 3 6 2 10 -4 10 -5 0
-13 -4 -16 -10z"/>
<path d="M2542 1301 c-7 -4 -15 -16 -16 -27 -2 -10 -13 -21 -26 -24 -13 -3
-25 -12 -28 -20 -3 -13 -2 -13 6 -1 6 8 17 11 26 8 9 -4 16 -2 16 3 0 13 57
13 65 0 3 -5 19 -10 36 -10 34 0 40 -20 7 -21 -14 -1 -8 -5 16 -10 21 -5 45
-17 52 -27 8 -9 14 -12 14 -5 0 6 -10 19 -22 29 l-23 16 25 -6 c14 -3 30 -6
36 -6 6 0 12 -11 12 -25 0 -14 -5 -25 -11 -25 -6 0 6 -9 27 -19 33 -17 41 -18
69 -6 l32 14 -40 1 c-29 0 -44 6 -53 20 -11 18 -10 20 12 20 14 0 28 5 31 10
3 6 -2 10 -12 10 -11 0 -24 5 -31 12 -6 6 -29 12 -52 14 -52 4 -59 9 -52 37 4
18 3 20 -9 11 -8 -6 -26 -14 -41 -18 -23 -5 -26 -3 -21 10 5 14 2 16 -16 11
-18 -4 -21 -2 -16 14 7 21 6 22 -13 10z"/>
<path d="M756 1283 c-6 -14 -5 -15 5 -6 7 7 10 15 7 18 -3 3 -9 -2 -12 -12z"/>
<path d="M865 1290 c3 -5 11 -10 16 -10 6 0 7 5 4 10 -3 6 -11 10 -16 10 -6 0
-7 -4 -4 -10z"/>
<path d="M1440 1293 c-8 -3 -18 -11 -22 -18 -4 -7 -27 -10 -63 -8 -31 2 -54
-1 -51 -5 3 -5 25 -8 48 -7 27 2 49 -3 60 -12 15 -13 16 -13 11 9 -6 20 -4 21
9 10 13 -11 16 -9 20 13 3 14 5 25 4 24 0 0 -8 -3 -16 -6z"/>
<path d="M1604 1289 c-3 -5 6 -9 20 -9 14 0 28 -4 31 -10 3 -5 11 -10 16 -10
17 0 -14 26 -38 32 -13 3 -26 2 -29 -3z"/>
<path d="M1546 1274 c-5 -13 -3 -14 6 -7 7 6 20 13 28 16 10 4 8 6 -6 6 -12 1
-25 -6 -28 -15z"/>
<path d="M1819 1273 c-13 -16 -12 -17 4 -4 16 13 21 21 13 21 -2 0 -10 -8 -17
-17z"/>
<path d="M1890 1280 c0 -5 5 -10 10 -10 6 0 10 5 10 10 0 6 -4 10 -10 10 -5 0
-10 -4 -10 -10z"/>
<path d="M2209 1283 c0 -5 -2 -18 -3 -31 -2 -13 1 -25 6 -28 4 -3 8 -1 8 4 0
5 12 10 28 11 15 0 44 3 65 7 21 4 43 2 50 -4 7 -6 24 -8 37 -5 15 4 21 2 17
-4 -4 -6 0 -14 9 -17 23 -9 34 -7 34 4 0 5 -6 7 -14 4 -11 -4 -13 0 -9 17 6
20 4 21 -33 15 -28 -5 -35 -4 -24 3 13 9 13 11 -2 11 -10 0 -18 4 -18 8 0 4
-9 8 -20 8 -10 0 -17 -2 -14 -5 2 -3 -5 -10 -17 -17 -27 -14 -60 -7 -52 12 3
8 1 14 -5 14 -6 0 -13 -6 -15 -12 -4 -10 -6 -10 -6 0 -1 13 -20 17 -22 5z"/>
<path d="M670 1269 c0 -21 27 -32 36 -16 4 7 4 9 -1 5 -4 -4 -14 0 -21 10 -12
15 -13 15 -14 1z"/>
<path d="M1690 1276 c0 -2 7 -7 16 -10 8 -3 12 -2 9 4 -6 10 -25 14 -25 6z"/>
<path d="M727 1263 c-2 -4 4 -17 14 -27 22 -22 25 -10 5 17 -8 10 -16 15 -19
10z"/>
<path d="M1120 1264 c0 -12 62 -54 80 -54 8 0 25 -10 39 -22 14 -13 20 -15 13
-6 -11 14 -10 18 5 28 15 9 15 11 1 6 -30 -9 -72 9 -79 35 l-7 24 -1 -24 -1
-24 -25 23 c-14 13 -25 19 -25 14z"/>
<path d="M1925 1260 c3 -5 8 -10 11 -10 2 0 4 5 4 10 0 6 -5 10 -11 10 -5 0
-7 -4 -4 -10z"/>
<path d="M2120 1259 c0 -5 5 -7 10 -4 6 3 10 8 10 11 0 2 -4 4 -10 4 -5 0 -10
-5 -10 -11z"/>
<path d="M1515 1249 c-9 -14 -2 -20 14 -10 8 6 9 11 3 15 -6 3 -14 1 -17 -5z"/>
<path d="M2005 1249 c-11 -16 -1 -19 13 -3 7 8 8 14 3 14 -5 0 -13 -5 -16 -11z"/>
<path d="M830 1239 c0 -5 5 -7 10 -4 6 3 10 8 10 11 0 2 -4 4 -10 4 -5 0 -10
-5 -10 -11z"/>
<path d="M1610 1236 c0 -9 -3 -16 -7 -15 -19 3 -50 -14 -62 -33 -11 -18 -8
-17 21 5 18 13 41 23 51 22 18 -3 24 20 7 30 -5 3 -10 -1 -10 -9z"/>
<path d="M2065 1240 c-3 -5 1 -10 9 -10 9 0 16 5 16 10 0 6 -4 10 -9 10 -6 0
-13 -4 -16 -10z"/>
<path d="M2135 1240 c-3 -5 1 -10 9 -10 9 0 16 5 16 10 0 6 -4 10 -9 10 -6 0
-13 -4 -16 -10z"/>
<path d="M570 1231 c0 -6 4 -13 10 -16 6 -3 7 1 4 9 -7 18 -14 21 -14 7z"/>
<path d="M630 1221 c0 -11 4 -22 9 -25 4 -3 6 6 3 19 -5 30 -12 33 -12 6z"/>
<path d="M811 1224 c0 -11 3 -14 6 -6 3 7 2 16 -1 19 -3 4 -6 -2 -5 -13z"/>
<path d="M1050 1236 c0 -2 7 -7 16 -10 8 -3 12 -2 9 4 -6 10 -25 14 -25 6z"/>
<path d="M1091 1224 c0 -12 6 -27 14 -34 10 -9 15 -9 15 -1 0 6 -4 11 -9 11
-5 0 -12 10 -14 23 -4 21 -4 21 -6 1z"/>
<path d="M1641 1224 c0 -11 3 -14 6 -6 3 7 2 16 -1 19 -3 4 -6 -2 -5 -13z"/>
<path d="M1660 1230 c0 -6 7 -10 15 -10 8 0 15 2 15 4 0 2 -7 6 -15 10 -8 3
-15 1 -15 -4z"/>
<path d="M1830 1225 c-7 -8 -19 -15 -26 -15 -8 0 -14 -8 -13 -17 0 -11 3 -13
6 -5 2 6 11 12 19 12 8 0 14 6 14 13 0 8 4 7 10 -3 8 -12 10 -11 10 8 0 26 -3
27 -20 7z"/>
<path d="M1940 1235 c0 -8 29 -12 39 -5 9 5 4 8 -13 8 -14 0 -26 -2 -26 -3z"/>
<path d="M1020 1215 c-7 -9 -11 -17 -9 -20 3 -2 10 5 17 15 14 24 10 26 -8 5z"/>
<path d="M1480 1220 c0 -6 7 -10 15 -10 8 0 15 2 15 4 0 2 -7 6 -15 10 -8 3
-15 1 -15 -4z"/>
<path d="M780 1210 c0 -5 5 -10 11 -10 5 0 7 5 4 10 -3 6 -8 10 -11 10 -2 0
-4 -4 -4 -10z"/>
<path d="M1728 1213 c7 -3 16 -2 19 1 4 3 -2 6 -13 5 -11 0 -14 -3 -6 -6z"/>
<path d="M1394 1196 c-3 -8 -1 -23 4 -33 5 -10 6 -27 1 -38 -11 -28 -11 -35 2
-35 5 0 8 4 5 8 -3 5 1 20 9 35 11 22 11 26 -1 31 -19 7 -18 26 2 26 8 0 12 5
9 10 -9 14 -25 12 -31 -4z"/>
<path d="M2235 1190 c-20 -13 -24 -20 -13 -20 9 0 18 -3 21 -7 2 -5 2 -3 1 4
-2 6 4 17 12 24 12 10 20 10 35 1 10 -7 19 -8 19 -3 0 8 -23 21 -38 21 -4 0
-20 -9 -37 -20z"/>
<path d="M2575 1200 c-3 -5 1 -10 10 -10 9 0 13 5 10 10 -3 6 -8 10 -10 10 -2
0 -7 -4 -10 -10z"/>
<path d="M970 1190 c-8 -5 -10 -10 -5 -10 6 0 17 5 25 10 8 5 11 10 5 10 -5 0
-17 -5 -25 -10z"/>
<path d="M1463 1192 c-10 -7 -10 -12 0 -25 11 -16 12 -15 12 8 0 14 0 25 0 25
0 0 -6 -4 -12 -8z"/>
<path d="M1863 1178 c4 -15 -4 -31 -30 -57 l-36 -36 -32 38 c-31 36 -55 48
-55 26 0 -5 -5 -7 -10 -4 -13 8 -82 -13 -95 -29 -5 -7 -31 -23 -57 -36 -27
-13 -48 -27 -48 -31 0 -16 -34 -40 -49 -34 -12 5 -13 4 -4 -6 9 -9 17 -8 37 5
24 15 25 15 19 -1 -3 -10 -9 -22 -13 -28 -4 -5 -1 -23 6 -40 7 -16 13 -23 14
-15 0 13 1 13 10 0 6 -9 10 -10 10 -3 0 6 -5 15 -10 18 -12 8 -9 37 5 47 6 5
4 8 -5 8 -11 1 -10 4 4 15 11 8 17 15 13 15 -4 0 -3 9 3 21 7 12 18 18 26 15
8 -3 12 -2 9 3 -3 5 4 12 15 16 11 3 20 11 20 16 0 13 49 31 82 31 29 -1 98
-49 98 -69 0 -7 6 -10 14 -7 8 3 12 12 9 20 -3 8 1 14 11 14 8 0 20 9 26 20
20 36 111 73 125 49 4 -5 17 -9 30 -9 15 0 31 -11 44 -29 24 -33 26 -52 9 -69
-9 -9 -9 -12 0 -12 7 0 15 7 18 15 4 8 12 15 20 15 8 0 14 2 14 4 0 7 -80 86
-88 87 -4 0 -14 2 -22 5 -57 15 -72 15 -94 1 -22 -15 -25 -15 -30 -1 -3 9 -4
20 0 25 3 5 0 9 -7 9 -7 0 -9 -9 -6 -22z"/>
<path d="M2180 1170 c8 -28 7 -30 -18 -30 -22 0 -24 2 -12 11 12 9 12 10 1 7
-22 -6 -24 -26 -4 -31 15 -4 15 -5 -3 -6 -11 0 -21 -8 -21 -15 0 -12 7 -11 29
5 15 11 28 17 28 12 0 -4 4 -2 8 5 10 15 3 72 -8 72 -5 0 -5 -13 0 -30z"/>
<path d="M2540 1190 c0 -5 5 -10 11 -10 5 0 7 5 4 10 -3 6 -8 10 -11 10 -2 0
-4 -4 -4 -10z"/>
<path d="M820 1181 c0 -5 -9 -11 -21 -14 -13 -3 -18 -10 -14 -17 4 -6 -2 -20
-13 -30 -15 -14 -22 -16 -32 -7 -9 9 -9 7 0 -9 13 -21 50 -23 50 -3 0 5 6 9
14 9 8 0 18 5 22 12 4 7 3 8 -4 4 -7 -4 -12 -3 -12 3 0 5 5 11 12 13 13 5 19
48 6 48 -4 0 -8 -4 -8 -9z"/>
<path d="M2103 1183 c9 -2 25 -2 35 0 9 3 1 5 -18 5 -19 0 -27 -2 -17 -5z"/>
<path d="M2323 1183 c9 -14 47 -24 47 -12 0 5 -4 9 -9 9 -5 0 -17 3 -27 7 -11
4 -15 3 -11 -4z"/>
<path d="M930 1173 c-72 -24 -79 -31 -78 -83 0 -28 3 -50 7 -50 4 0 6 20 4 45
-4 46 -3 46 42 66 25 11 45 22 45 24 0 3 -1 5 -2 4 -2 0 -10 -3 -18 -6z"/>
<path d="M1135 1170 c3 -5 8 -10 11 -10 2 0 4 5 4 10 0 6 -5 10 -11 10 -5 0
-7 -4 -4 -10z"/>
<path d="M2497 1159 c-10 -11 -17 -23 -14 -25 2 -2 13 7 25 21 12 14 18 25 14
25 -4 0 -16 -9 -25 -21z"/>
<path d="M1160 1166 c0 -2 7 -9 15 -16 13 -11 14 -10 9 4 -5 14 -24 23 -24 12z"/>
<path d="M1220 1160 c0 -5 5 -10 11 -10 5 0 7 5 4 10 -3 6 -8 10 -11 10 -2 0
-4 -4 -4 -10z"/>
<path d="M1765 1159 c-11 -16 -1 -19 13 -3 7 8 8 14 3 14 -5 0 -13 -5 -16 -11z"/>
<path d="M2385 1160 c-8 -13 5 -13 25 0 13 8 13 10 -2 10 -9 0 -20 -4 -23 -10z"/>
<path d="M420 1149 c0 -5 5 -7 10 -4 6 3 10 8 10 11 0 2 -4 4 -10 4 -5 0 -10
-5 -10 -11z"/>
<path d="M465 1150 c3 -5 8 -10 11 -10 2 0 4 5 4 10 0 6 -5 10 -11 10 -5 0 -7
-4 -4 -10z"/>
<path d="M684 1143 c-5 -9 -24 -16 -41 -17 -18 -1 -29 -6 -26 -12 4 -11 -67
-29 -95 -25 -8 1 -21 -4 -30 -12 -19 -17 -90 -39 -137 -43 -16 -1 -45 -6 -63
-9 -20 -5 -32 -3 -32 3 0 6 -18 9 -47 6 -27 -2 -55 -5 -63 -6 -30 -2 -50 2
-50 12 0 6 8 10 18 10 10 0 19 7 19 15 0 11 -4 12 -11 5 -5 -5 -21 -10 -35 -9
-23 0 -21 3 14 19 l40 19 -42 0 c-36 1 -43 -2 -43 -18 0 -16 -6 -19 -32 -16
-31 4 -32 3 -14 -10 11 -8 25 -15 30 -15 6 0 4 -5 -4 -10 -11 -7 -7 -10 17
-10 46 0 62 -8 56 -31 -7 -24 13 -25 26 -1 14 27 71 27 78 1 7 -24 18 -24 41
-1 12 12 33 17 69 17 29 0 53 4 53 9 0 4 9 6 20 3 11 -3 20 0 20 6 0 6 3 7 7
4 3 -4 12 -2 20 4 7 6 13 8 13 3 0 -4 13 5 30 21 26 25 31 26 47 14 11 -9 14
-10 9 -1 -7 12 -4 13 55 17 9 0 24 7 33 14 9 7 16 11 16 8 0 -3 14 -1 30 4 17
6 30 17 30 24 0 21 -15 25 -26 8z"/>
<path d="M1535 1149 c-4 -6 -5 -12 -2 -15 2 -3 7 2 10 11 7 17 1 20 -8 4z"/>
<path d="M168 1137 c8 -9 23 -18 35 -20 12 -3 9 -4 -8 -3 -16 2 -38 6 -48 11
-26 11 -34 -3 -11 -20 12 -9 31 -12 52 -9 21 4 32 2 32 -6 0 -7 -8 -9 -19 -5
-11 3 -22 1 -26 -5 -3 -5 2 -10 14 -10 31 0 51 11 51 27 0 11 6 8 20 -8 l20
-24 -10 28 c-8 23 -7 27 10 27 10 0 21 4 25 9 3 6 -15 9 -42 8 -27 0 -61 3
-78 8 -27 7 -29 7 -17 -8z"/>
<path d="M2607 1143 c-4 -3 -7 -11 -7 -17 0 -6 5 -5 12 2 6 6 9 14 7 17 -3 3
-9 2 -12 -2z"/>
<path d="M1498 1133 c7 -3 16 -2 19 1 4 3 -2 6 -13 5 -11 0 -14 -3 -6 -6z"/>
<path d="M2368 1116 c-36 -22 -40 -36 -11 -36 7 0 13 7 13 15 0 8 6 15 14 15
8 0 16 7 20 15 7 19 9 19 -36 -9z"/>
<path d="M440 1126 c0 -2 7 -6 15 -10 8 -3 15 -1 15 4 0 6 -7 10 -15 10 -8 0
-15 -2 -15 -4z"/>
<path d="M1923 1123 c-7 -2 -13 -9 -13 -15 0 -7 4 -7 13 0 17 15 66 3 80 -19
13 -21 29 -26 21 -6 -10 27 -72 52 -101 40z"/>
<path d="M2245 1120 c3 -5 8 -10 11 -10 2 0 4 5 4 10 0 6 -5 10 -11 10 -5 0
-7 -4 -4 -10z"/>
<path d="M430 1102 c6 -13 14 -21 18 -18 3 4 -2 14 -12 24 -18 16 -18 16 -6
-6z"/>
<path d="M2315 1110 c-3 -5 -12 -7 -20 -3 -8 3 -15 3 -15 0 0 -13 30 -14 40
-1 7 8 10 14 7 14 -3 0 -8 -4 -12 -10z"/>
<path d="M2470 1116 c0 -5 10 -25 22 -45 25 -39 25 -40 8 -51 -7 -5 -3 -9 12
-12 l25 -5 -20 41 c-23 47 -47 84 -47 72z"/>
<path d="M2810 1110 c-12 -7 -7 -10 20 -10 35 0 106 -39 123 -67 4 -7 17 -13
28 -13 17 0 18 3 7 20 -7 11 -26 25 -42 32 -16 6 -24 14 -18 16 23 7 12 21
-15 20 -16 0 -41 2 -58 6 -16 4 -37 2 -45 -4z"/>
<path d="M1082 1085 c-12 -14 -18 -25 -14 -25 10 0 45 41 39 46 -2 2 -13 -7
-25 -21z"/>
<path d="M1305 1099 c-4 -6 -14 -8 -23 -4 -9 3 -13 2 -8 -2 13 -14 54 -10 49
4 -6 16 -10 16 -18 2z"/>
<path d="M1458 1098 c5 -5 16 -8 23 -6 8 3 3 7 -10 11 -17 4 -21 3 -13 -5z"/>
<path d="M2752 1096 c7 -7 19 -11 27 -8 11 4 10 7 -5 13 -29 12 -36 10 -22 -5z"/>
<path d="M291 1085 c4 -19 49 -32 49 -14 0 5 -4 8 -9 4 -5 -3 -17 2 -26 12
-16 16 -17 15 -14 -2z"/>
<path d="M668 1092 c-10 -2 -18 -8 -18 -13 0 -11 11 -11 30 1 18 11 11 18 -12
12z"/>
<path d="M1876 1085 c-8 -8 -19 -15 -25 -15 -6 0 -11 -4 -11 -10 0 -5 -9 -19
-21 -31 -11 -11 -19 -22 -17 -24 2 -2 26 18 53 46 27 27 46 49 43 49 -4 0 -13
-7 -22 -15z"/>
<path d="M2575 1091 c-3 -5 -2 -12 3 -15 5 -3 9 1 9 9 0 17 -3 19 -12 6z"/>
<path d="M357 1079 c7 -7 15 -10 18 -7 3 3 -2 9 -12 12 -14 6 -15 5 -6 -5z"/>
<path d="M1352 1081 c-10 -6 -9 -10 7 -14 14 -3 21 0 21 9 0 16 -9 18 -28 5z"/>
<path d="M1435 1079 c-4 -5 -4 -13 -1 -16 3 -4 6 0 6 8 0 11 2 11 10 -1 6 -9
10 -10 10 -3 0 17 -17 25 -25 12z"/>
<path d="M2148 1072 c-19 -12 -28 -25 -27 -42 1 -25 1 -25 7 -2 4 12 21 31 37
42 36 24 21 25 -17 2z"/>
<path d="M2210 1080 c0 -6 7 -10 15 -10 8 0 15 2 15 4 0 2 -7 6 -15 10 -8 3
-15 1 -15 -4z"/>
<path d="M2395 1070 c5 -14 2 -20 -10 -20 -8 0 -19 -8 -22 -17 -4 -9 -15 -25
-25 -35 -20 -20 -24 -38 -8 -38 6 0 10 -5 10 -11 0 -6 -8 -8 -19 -4 -11 3 -22
1 -26 -4 -4 -7 1 -8 11 -4 12 5 15 3 9 -6 -4 -8 -18 -11 -36 -7 -35 7 -43 -4
-23 -32 19 -28 37 -29 29 -1 -6 18 -4 20 14 14 16 -5 21 -2 21 11 0 13 3 14
15 4 13 -11 14 -8 11 18 -4 38 18 86 50 107 22 14 23 14 17 -2 -5 -17 -5 -17
13 0 19 18 19 18 0 33 -27 20 -38 18 -31 -6z"/>
<path d="M2835 1079 c-17 -7 -16 -8 8 -8 15 -1 30 -7 33 -15 3 -8 12 -17 20
-20 11 -4 11 -1 -2 18 -19 30 -33 36 -59 25z"/>
<path d="M916 1065 c-3 -8 -1 -15 4 -15 6 0 10 7 10 15 0 8 -2 15 -4 15 -2 0
-6 -7 -10 -15z"/>
<path d="M1662 1067 c-35 -16 -26 -25 13 -13 35 11 46 23 22 23 -7 0 -23 -5
-35 -10z"/>
<path d="M2250 1076 c0 -2 7 -7 16 -10 8 -3 12 -2 9 4 -6 10 -25 14 -25 6z"/>
<path d="M2788 1073 c7 -3 16 -2 19 1 4 3 -2 6 -13 5 -11 0 -14 -3 -6 -6z"/>
<path d="M720 1060 c0 -5 -7 -10 -15 -10 -8 0 -15 -4 -15 -10 0 -5 -7 -10 -15
-10 -8 0 -15 -5 -15 -11 0 -6 15 -1 33 10 19 11 37 18 41 14 4 -4 4 0 0 10 -7
19 -14 22 -14 7z"/>
<path d="M1390 1061 c0 -5 5 -13 10 -16 6 -3 10 -2 10 4 0 5 -4 13 -10 16 -5
3 -10 2 -10 -4z"/>
<path d="M1720 1060 c0 -5 5 -10 10 -10 6 0 10 5 10 10 0 6 -4 10 -10 10 -5 0
-10 -4 -10 -10z"/>
<path d="M785 1050 c-3 -5 0 -10 9 -10 8 0 23 -3 33 -6 16 -6 16 -5 -2 9 -24
19 -32 21 -40 7z"/>
<path d="M949 1043 c6 -12 16 -25 22 -28 20 -13 15 0 -9 25 -22 23 -24 23 -13
3z"/>
<path d="M1320 1048 c0 -9 5 -20 10 -23 13 -8 13 5 0 25 -8 13 -10 13 -10 -2z"/>
<path d="M1750 1036 c0 -22 3 -27 11 -19 8 8 8 16 0 30 -9 16 -10 14 -11 -11z"/>
<path d="M2590 1048 c0 -5 7 -8 15 -8 8 0 15 -4 15 -10 0 -5 7 -7 16 -3 13 5
15 1 10 -15 -16 -58 -18 -67 -7 -52 6 8 11 24 11 35 0 15 2 17 9 7 4 -8 19
-19 31 -25 27 -14 27 -32 0 -32 -11 0 -20 -5 -19 -9 0 -11 -68 -36 -99 -36
-13 0 -20 -4 -17 -10 3 -5 15 -10 26 -10 32 0 21 -16 -23 -33 -49 -20 -59 -15
-32 14 18 20 18 21 -1 35 -18 13 -17 14 15 14 42 0 34 11 -9 12 -18 1 -34 5
-37 10 -3 4 -10 8 -16 8 -7 0 -7 -4 1 -13 8 -10 7 -17 -2 -27 -9 -10 -9 -11 1
-6 6 4 12 2 12 -4 0 -7 8 -9 21 -5 28 9 21 -16 -9 -31 -13 -6 -26 -15 -30 -19
-4 -5 -1 -5 5 -1 8 4 11 2 8 -6 -7 -17 -55 -17 -55 0 0 6 -5 12 -11 12 -6 0
-9 -6 -6 -14 9 -23 -17 -51 -39 -41 -30 13 -56 13 -93 -2 -42 -16 -56 -16 -73
1 -24 23 -55 28 -62 10 -5 -13 -4 -14 7 -6 10 8 20 6 41 -7 l27 -18 -28 -6
c-15 -3 -43 -4 -60 -2 -18 1 -30 -1 -27 -6 3 -5 -2 -9 -10 -9 -8 0 -22 -9 -30
-21 -8 -12 -19 -18 -24 -15 -6 3 -12 0 -15 -6 -2 -7 -8 -9 -13 -5 -5 5 2 17
16 28 75 57 93 79 64 79 -8 0 -12 -5 -9 -10 4 -6 -10 -17 -29 -25 -32 -14 -37
-14 -56 2 -11 10 -20 20 -20 23 0 10 59 10 65 0 3 -5 11 -10 16 -10 6 0 3 7
-5 16 -11 11 -27 14 -53 11 -27 -4 -41 -1 -51 11 -11 13 -13 14 -9 2 3 -10 -3
-15 -21 -17 -14 0 -32 -9 -39 -20 -27 -39 -34 -43 -51 -34 -13 7 -25 4 -42
-10 l-25 -19 67 0 c68 0 89 10 69 34 -15 18 9 28 48 20 20 -4 28 -11 24 -20
-5 -12 8 -19 30 -15 4 0 7 -6 7 -14 0 -9 -9 -15 -24 -15 -19 0 -23 -4 -19 -20
4 -14 0 -20 -12 -20 -12 0 -16 6 -12 20 6 23 -31 40 -44 19 -13 -21 2 -32 17
-12 13 17 13 17 14 -4 0 -20 -4 -22 -32 -19 -20 2 -32 9 -30 17 2 9 -1 9 -14
-2 -13 -11 -18 -11 -21 -1 -3 6 -9 10 -14 6 -5 -3 -9 1 -10 8 0 7 -5 2 -11
-12 l-11 -25 -7 25 -8 25 -7 -22 c-9 -27 -42 -31 -48 -5 -3 12 -5 11 -6 -6 -1
-14 -5 -21 -12 -16 -6 3 -9 15 -6 25 3 11 1 17 -4 13 -5 -3 -9 -16 -9 -28 0
-25 -36 -43 -43 -22 -2 6 -3 3 -2 -6 4 -24 -30 -24 -45 0 -10 15 -11 15 -5 -3
12 -36 10 -40 -12 -39 -12 0 -20 -3 -17 -8 3 -4 -4 -8 -15 -8 -23 0 -37 16
-19 23 24 8 -3 21 -45 22 -32 0 -42 4 -45 18 -3 12 3 17 20 17 30 0 88 36 88
54 0 27 -19 27 -26 1 -7 -29 -23 -40 -76 -49 -24 -4 -38 -3 -38 4 0 5 -5 10
-11 10 -6 0 5 -19 26 -41 36 -40 37 -44 33 -100 -3 -36 -1 -56 6 -52 5 4 7 0
3 -10 -3 -9 0 -18 9 -21 7 -3 13 -2 11 2 -3 9 14 11 32 4 11 -4 10 -7 -5 -13
-13 -5 -7 -8 22 -8 32 -1 45 4 56 21 8 12 19 18 26 14 18 -11 15 -22 -10 -34
-18 -8 -19 -11 -5 -11 9 -1 17 -4 17 -9 0 -16 -38 -27 -95 -27 -41 0 -59 4
-58 12 2 6 -4 23 -11 38 l-13 26 -49 -44 c-31 -29 -42 -44 -31 -44 9 0 17 5
17 10 0 5 6 7 13 4 7 -3 21 1 32 9 21 15 36 18 33 7 -3 -18 16 -43 33 -43 10
0 19 -4 19 -10 0 -5 -10 -10 -22 -10 -12 0 -18 -3 -15 -7 4 -3 21 -6 39 -5 28
1 30 -1 15 -10 -11 -5 -30 -8 -43 -5 -13 2 -24 0 -24 -4 0 -5 15 -10 33 -10
25 -1 27 -3 8 -6 -13 -3 -34 1 -46 7 -16 9 -28 9 -41 2 -14 -8 -7 -11 39 -17
54 -7 72 -18 45 -28 -10 -3 -9 -8 2 -22 14 -17 13 -18 -3 -12 -10 4 -23 7 -29
7 -6 0 -7 8 -4 17 4 10 4 14 0 10 -4 -4 -14 -1 -23 6 -11 9 -28 11 -51 6 -19
-3 -30 -7 -23 -8 7 0 10 -8 7 -16 -4 -9 0 -15 9 -15 8 0 17 -5 19 -11 2 -7 25
-11 56 -11 51 2 52 1 40 -21 -7 -12 -12 -28 -13 -35 0 -7 -7 -17 -15 -23 -12
-8 -10 -9 7 -4 12 3 24 1 28 -5 3 -5 2 -10 -4 -10 -5 0 -16 -7 -25 -15 -13
-14 -16 -13 -26 5 -7 13 -20 20 -38 19 -22 -1 -23 -2 -5 -6 12 -2 24 -11 27
-19 3 -9 1 -12 -4 -9 -6 3 -10 2 -10 -4 0 -5 -6 -12 -12 -14 -7 -2 -1 -3 15
-1 21 3 27 -1 27 -16 0 -36 -28 -51 -90 -48 -39 2 -56 6 -53 14 3 8 14 10 31
5 15 -4 43 -4 62 -1 34 6 33 6 -17 13 -29 4 -53 12 -53 18 0 6 -7 3 -16 -5 -8
-9 -20 -14 -25 -11 -5 4 -6 -1 -3 -9 4 -11 0 -13 -15 -9 -20 5 -20 5 2 44 23
40 47 56 26 17 -10 -18 -9 -20 6 -15 9 4 24 7 33 7 13 0 14 2 3 9 -9 6 -10 11
-2 15 6 4 15 5 20 1 5 -3 12 -1 15 4 4 5 -8 12 -25 16 -32 7 -29 19 6 28 11 3
3 5 -18 4 -21 -1 -41 -5 -44 -11 -3 -5 -1 -6 5 -2 19 12 13 -7 -11 -35 -21
-24 -56 -42 -102 -52 -14 -3 -12 -5 8 -6 16 0 43 -12 60 -25 18 -13 43 -24 57
-25 14 0 52 0 85 -1 77 0 112 7 119 27 5 13 4 14 -9 3 -8 -7 -15 -8 -15 -2 0
5 7 15 15 22 13 11 20 9 43 -13 l28 -26 39 24 c26 16 34 24 22 25 -10 0 -37
10 -60 21 -23 12 -44 20 -46 18 -2 -2 -9 9 -14 25 -6 19 -6 55 1 105 10 72 13
78 57 120 67 62 80 111 51 191 l-13 35 -7 -30 c-4 -16 -15 -35 -24 -43 -16
-13 -16 -13 1 -8 11 4 17 2 15 -5 -5 -16 -71 -18 -98 -4 -22 12 -22 12 11 19
36 7 79 37 79 55 0 20 81 69 131 80 27 6 103 11 167 11 94 0 125 4 160 20 23
10 45 26 48 34 3 8 18 14 39 13 19 0 32 -5 29 -9 -3 -4 0 -8 5 -8 6 0 11 4 11
10 0 5 6 7 14 4 7 -3 16 2 20 11 5 15 8 15 28 1 30 -21 37 -20 31 4 -4 16 0
20 19 20 14 0 28 3 32 7 3 4 15 7 25 8 16 1 18 -2 10 -22 -5 -14 -9 -26 -9
-29 0 -11 76 37 88 55 16 27 30 27 34 -1 5 -35 28 -34 28 1 0 30 15 51 22 30
3 -9 11 -8 28 2 33 18 50 20 50 6 1 -23 30 27 30 51 0 22 2 23 48 16 l47 -7
-20 23 -20 23 22 -7 c19 -6 22 -4 16 11 -6 17 -5 17 15 0 11 -11 26 -16 32
-12 6 4 18 1 27 -6 13 -12 20 -8 47 24 29 35 34 37 60 28 15 -6 40 -11 55 -11
25 0 28 3 23 28 -7 40 -52 85 -52 51 0 -5 4 -8 9 -5 5 3 11 -1 14 -9 4 -10 1
-12 -10 -8 -12 5 -14 3 -8 -8 5 -8 -1 -5 -13 5 -12 11 -22 14 -22 8 0 -20 -32
-13 -37 8 -5 20 -33 29 -33 10 0 -5 5 -10 10 -10 6 0 10 -7 10 -15 0 -9 -6
-12 -15 -9 -8 4 -15 1 -15 -6 0 -8 -8 -10 -21 -7 -12 3 -29 1 -39 -5 -13 -8
-25 -7 -49 3 -33 15 -38 27 -18 49 10 12 9 12 -5 1 -11 -8 -18 -9 -18 -3 0 19
23 26 34 10 17 -23 64 -28 69 -8 4 15 0 17 -24 10 -18 -5 -27 -5 -24 1 7 10
-1 12 -72 13 -29 1 -53 -2 -53 -6z m240 -89 c-11 -19 -40 -27 -40 -10 0 16
-39 0 -42 -18 -3 -12 -5 -10 -10 7 -3 12 -2 20 3 16 5 -3 9 0 9 5 0 6 13 11
29 11 17 0 33 5 36 10 12 19 25 0 15 -21z m-830 -275 c0 -8 -4 -12 -10 -9 -5
3 -10 10 -10 16 0 5 5 9 10 9 6 0 10 -7 10 -16z m-510 -74 c0 -5 -6 -10 -14
-10 -8 0 -18 5 -21 10 -3 6 3 10 14 10 12 0 21 -4 21 -10z m35 -50 c-3 -5 1
-11 7 -13 7 -3 0 -6 -17 -6 -23 -1 -27 -4 -15 -11 12 -8 9 -10 -13 -10 -35 0
-32 21 4 31 14 4 17 7 7 8 -23 1 -34 21 -17 32 15 9 52 -18 44 -31z m36 -3
c-8 -8 -11 -7 -11 4 0 20 13 34 18 19 3 -7 -1 -17 -7 -23z m4 -87 c-3 -5 -14
-10 -23 -9 -14 0 -13 2 3 9 27 11 27 11 20 0z m-15 -89 c0 -5 -9 -11 -20 -14
-20 -5 -26 3 -13 16 9 10 33 8 33 -2z m-120 -121 c13 -25 2 -25 -30 0 -25 19
-25 20 -3 20 12 0 27 -9 33 -20z m64 -184 c-7 -6 -20 -20 -28 -31 -15 -19 -15
-19 -16 13 0 25 5 35 23 41 26 10 43 -8 21 -23z m71 -6 c-12 -5 -14 -9 -6 -9
8 -1 12 -3 9 -6 -7 -7 -38 5 -38 14 0 4 12 7 28 8 23 1 24 1 7 -7z"/>
<path d="M2818 1053 c7 -3 16 -2 19 1 4 3 -2 6 -13 5 -11 0 -14 -3 -6 -6z"/>
<path d="M568 1043 c-10 -2 -18 -11 -18 -19 0 -13 2 -13 16 0 8 9 19 16 24 16
5 0 16 -7 24 -16 9 -8 16 -11 16 -5 0 9 -33 33 -42 30 -2 -1 -11 -3 -20 -6z"/>
<path d="M1040 1040 c0 -5 5 -10 11 -10 5 0 7 5 4 10 -3 6 -8 10 -11 10 -2 0
-4 -4 -4 -10z"/>
<path d="M2152 1029 c-15 -24 -13 -32 7 -20 7 5 11 16 9 25 -2 14 -5 13 -16
-5z"/>
<path d="M2186 1035 c-3 -8 -1 -15 4 -15 6 0 10 7 10 15 0 8 -2 15 -4 15 -2 0
-6 -7 -10 -15z"/>
<path d="M2330 1035 c-7 -9 -11 -17 -9 -20 3 -2 10 5 17 15 14 24 10 26 -8 5z"/>
<path d="M1156 1025 c4 -8 8 -15 10 -15 2 0 4 7 4 15 0 8 -4 15 -10 15 -5 0
-7 -7 -4 -15z"/>
<path d="M1273 1027 c-18 -5 -33 -17 -33 -25 0 -10 -8 -13 -32 -10 -27 4 -29
3 -14 -7 18 -14 50 -9 80 11 19 13 46 9 46 -7 0 -4 -8 -5 -17 -2 -13 5 -12 1
5 -17 20 -22 21 -26 7 -36 -8 -6 -15 -15 -15 -19 0 -4 7 -1 16 6 15 13 17 11
12 -19 -2 -17 -1 -32 4 -32 11 0 10 71 -1 89 -15 23 -2 42 19 31 27 -14 34
-12 20 5 -7 8 -17 15 -23 15 -6 0 -18 6 -26 13 -12 10 -24 11 -48 4z"/>
<path d="M1593 1030 c-13 -5 -23 -16 -23 -24 0 -7 -7 -17 -16 -20 -8 -3 -12
-11 -8 -17 4 -7 13 0 25 17 10 15 28 33 41 40 26 15 14 17 -19 4z"/>
<path d="M1406 1017 c-16 -12 -16 -13 2 -14 10 -1 19 5 19 13 0 17 1 17 -21 1z"/>
<path d="M2191 1005 c-19 -6 -30 -14 -25 -18 5 -3 25 3 44 14 40 21 32 23 -19
4z"/>
<path d="M2433 1008 c15 -5 27 -14 27 -20 0 -6 -11 -7 -27 -4 l-28 7 23 -16
c14 -10 30 -14 40 -9 9 4 22 6 29 5 24 -3 22 17 -2 23 -14 4 -25 11 -25 16 0
6 -15 10 -32 9 l-33 -1 28 -10z"/>
<path d="M452 1005 c3 -4 28 -9 54 -11 27 -3 47 -3 44 -1 -3 3 -28 8 -55 12
-27 3 -46 3 -43 0z"/>
<path d="M1610 989 c-7 -11 -10 -23 -7 -25 2 -2 9 7 15 21 14 30 7 33 -8 4z"/>
<path d="M2080 1001 c0 -5 -3 -18 -6 -28 -5 -16 -5 -17 6 -1 6 11 17 15 28 11
16 -6 16 -6 0 10 -19 19 -28 22 -28 8z"/>
<path d="M304 983 c-14 -10 -14 -13 -3 -14 8 0 4 -5 -8 -11 -32 -15 -29 -28 7
-28 19 0 30 5 30 14 0 22 33 29 47 10 7 -10 16 -14 20 -10 4 4 3 10 -3 14 -6
4 -13 14 -16 22 -6 19 -50 20 -74 3z"/>
<path d="M806 982 c-16 -10 -28 -22 -28 -27 0 -6 -5 -16 -11 -24 -10 -12 -9
-14 6 -8 16 6 17 2 13 -39 -5 -41 -4 -45 10 -34 9 8 11 16 5 19 -12 8 -3 51
10 51 5 0 9 -7 9 -15 0 -12 5 -13 28 -3 42 18 50 29 15 22 -21 -4 -39 0 -57
11 -29 19 -24 35 13 38 11 1 21 7 21 14 0 15 2 16 -34 -5z"/>
<path d="M2246 985 c4 -8 10 -12 15 -9 11 6 2 24 -11 24 -5 0 -7 -7 -4 -15z"/>
<path d="M1390 979 c0 -5 5 -7 10 -4 6 3 10 8 10 11 0 2 -4 4 -10 4 -5 0 -10
-5 -10 -11z"/>
<path d="M1422 978 c-14 -14 -16 -42 -2 -33 6 3 10 -2 10 -12 0 -15 2 -16 10
-3 9 13 11 13 20 0 7 -11 10 -12 10 -2 0 8 -9 16 -20 19 -11 3 -20 12 -20 20
0 13 3 13 15 3 13 -11 14 -10 9 4 -7 19 -16 20 -32 4z"/>
<path d="M1671 973 c7 -12 15 -20 18 -17 3 2 -3 12 -13 22 -17 16 -18 16 -5
-5z"/>
<path d="M2013 983 c-7 -2 -13 -11 -13 -18 0 -7 -6 -16 -12 -18 -8 -3 -6 -6 5
-6 9 -1 17 -8 17 -17 0 -8 -4 -13 -9 -9 -6 3 -15 -4 -21 -16 -9 -16 -9 -20 0
-14 6 4 21 -1 33 -12 21 -17 21 -17 7 0 -10 14 -11 23 -3 37 8 11 8 21 2 27
-6 6 -4 14 6 23 26 21 19 36 -12 23z"/>
<path d="M2209 979 c-10 -6 -10 -9 -1 -9 6 0 12 -6 12 -14 0 -15 27 -29 34
-18 2 4 -4 17 -13 29 -12 15 -22 18 -32 12z"/>
<path d="M2370 976 c7 -7 13 -7 20 0 6 6 3 10 -10 10 -13 0 -16 -4 -10 -10z"/>
<path d="M1581 957 c-1 -11 -6 -15 -13 -11 -7 5 -8 3 -3 -5 10 -16 29 2 22 21
-4 8 -6 7 -6 -5z"/>
<path d="M1010 940 c-11 -7 -11 -10 -2 -10 7 0 11 -4 8 -9 -6 -10 24 -25 32
-16 3 3 1 5 -5 5 -6 0 -14 7 -17 16 -5 12 -1 14 17 9 17 -5 19 -4 7 4 -18 13
-21 13 -40 1z"/>
<path d="M1154 934 c-18 -15 -18 -15 3 -5 30 15 32 14 43 -14 6 -15 17 -25 27
-24 17 1 16 2 0 6 -13 3 -17 11 -14 23 3 11 -1 21 -10 24 -22 9 -27 8 -49 -10z"/>
<path d="M1700 939 c0 -5 5 -7 10 -4 6 3 10 8 10 11 0 2 -4 4 -10 4 -5 0 -10
-5 -10 -11z"/>
<path d="M1815 940 c-3 -5 -1 -10 4 -10 6 0 11 5 11 10 0 6 -2 10 -4 10 -3 0
-8 -4 -11 -10z"/>
<path d="M2055 939 c-4 -6 -5 -12 -2 -15 2 -3 7 2 10 11 7 17 1 20 -8 4z"/>
<path d="M445 910 c-26 -27 -30 -28 -45 -15 -9 8 -30 15 -46 15 -22 0 -26 3
-14 10 9 6 10 10 3 10 -7 0 -25 -11 -40 -25 l-28 -24 27 -1 c15 0 30 5 33 10
3 6 11 10 16 10 6 0 8 -4 4 -9 -3 -6 3 -8 14 -6 21 4 38 -21 18 -28 -8 -2 -8
-5 0 -10 6 -4 17 -1 25 6 7 8 19 12 26 9 18 -6 14 -32 -5 -32 -15 0 -16 -2 -3
-10 8 -5 10 -10 4 -10 -7 0 -14 -7 -18 -15 -4 -12 2 -14 27 -12 20 1 31 -2 30
-9 -1 -8 13 -11 37 -11 22 1 40 6 40 11 0 6 4 5 9 -3 5 -8 18 -12 29 -9 15 4
18 1 15 -12 -3 -11 2 -20 14 -24 28 -9 37 -8 39 6 8 43 22 91 24 78 1 -11 4
-9 11 5 8 17 9 17 6 -7 -3 -19 0 -25 10 -21 7 3 13 1 13 -3 0 -12 52 -14 66
-3 6 5 22 9 35 8 98 -2 119 -5 124 -16 2 -7 0 -13 -5 -13 -6 0 -10 -5 -10 -10
0 -6 12 -8 28 -4 16 3 22 2 15 -3 -9 -7 -8 -12 7 -23 11 -8 20 -20 20 -27 0
-23 21 -25 40 -3 25 29 80 34 80 7 0 -12 4 -16 13 -11 10 6 10 4 0 -7 -20 -20
-15 -29 10 -20 44 18 62 24 75 25 7 1 16 6 20 11 4 6 14 12 22 14 8 2 24 6 34
9 12 3 17 1 13 -5 -8 -13 21 -26 36 -16 6 4 43 7 82 7 69 1 70 1 73 29 2 15 8
27 13 27 5 0 9 5 9 10 0 21 -30 9 -31 -12 -1 -17 -2 -19 -6 -5 -5 20 -14 22
-32 5 -7 -7 -11 -8 -10 -3 1 6 -3 22 -9 37 -10 24 -15 26 -49 21 -44 -7 -56
-13 -25 -13 12 0 22 -4 22 -10 0 -5 7 -7 15 -4 8 4 15 1 15 -5 0 -17 -31 -26
-39 -12 -4 6 -15 9 -25 5 -10 -4 -21 -3 -25 2 -14 21 -57 32 -74 19 -23 -17
-22 -28 2 -15 26 13 84 -6 61 -20 -10 -6 -2 -8 23 -5 33 4 36 3 25 -9 -9 -9
-31 -13 -64 -11 -27 2 -49 4 -49 5 0 9 -45 4 -49 -5 -3 -8 5 -11 22 -8 27 3
27 3 -3 -12 -41 -19 -59 -18 -80 5 -10 11 -27 20 -37 20 -11 0 -16 5 -13 10 4
6 -4 5 -19 -1 -14 -7 -23 -15 -21 -20 3 -4 -1 -9 -7 -11 -7 -3 -33 17 -57 44
-24 27 -49 47 -56 44 -7 -2 -19 8 -26 22 -17 33 -30 46 -49 50 -10 3 -7 -5 8
-20 31 -34 29 -50 -5 -42 -16 4 -30 8 -32 10 -2 2 -16 -3 -32 -11 -15 -8 -30
-15 -34 -15 -11 0 -5 28 8 33 7 3 5 6 -5 6 -11 1 -18 -6 -18 -16 -1 -16 -2
-16 -13 -2 -14 19 -97 35 -97 19 0 -6 -8 -20 -19 -31 -16 -18 -26 -19 -80 -13
-33 3 -66 13 -72 20 -9 11 -9 14 0 14 7 0 9 4 6 10 -3 5 3 15 15 22 11 7 20
17 20 22 0 5 -8 2 -18 -7 -24 -22 -29 -21 -35 2 -3 13 3 25 17 34 11 8 18 18
15 21 -3 3 -18 -8 -34 -24z m204 -106 c-15 -42 -20 -46 -35 -33 -13 10 -12 15
7 36 30 30 41 29 28 -3z m771 -59 c-17 -21 -7 -29 18 -16 27 14 32 14 32 -4 0
-16 -19 -19 -69 -9 -52 11 -40 33 23 43 5 0 3 -6 -4 -14z"/>
<path d="M2610 929 c0 -5 5 -7 10 -4 6 3 10 8 10 11 0 2 -4 4 -10 4 -5 0 -10
-5 -10 -11z"/>
<path d="M646 911 c-17 -19 -17 -19 3 -14 12 3 21 12 21 19 0 18 -4 18 -24 -5z"/>
<path d="M1750 921 c0 -6 4 -13 10 -16 6 -3 7 1 4 9 -7 18 -14 21 -14 7z"/>
<path d="M1855 920 c-3 -5 -1 -10 4 -10 6 0 11 5 11 10 0 6 -2 10 -4 10 -3 0
-8 -4 -11 -10z"/>
<path d="M936 883 c5 -26 3 -32 -15 -36 -20 -4 -19 -5 1 -3 16 1 24 9 28 26 7
33 35 34 65 4 13 -13 29 -24 34 -24 6 0 8 -8 4 -17 -5 -15 -3 -16 7 -6 11 10
11 15 0 28 -7 8 -19 15 -27 15 -8 0 -11 5 -7 12 4 6 3 8 -4 4 -6 -3 -13 2 -16
12 -5 14 -16 18 -41 18 -34 -1 -35 -2 -29 -33z"/>
<path d="M910 898 c0 -9 -6 -19 -12 -21 -10 -4 -10 -6 0 -6 14 -1 28 26 18 36
-3 4 -6 -1 -6 -9z"/>
<path d="M1091 897 c-6 -6 -11 -20 -11 -31 0 -17 2 -18 9 -6 6 8 7 18 4 24 -4
5 8 7 30 3 44 -7 47 -3 8 11 -20 7 -32 7 -40 -1z"/>
<path d="M1444 894 c-19 -15 -18 -15 0 -9 11 3 23 0 27 -7 4 -7 11 -9 15 -6 3
4 0 14 -9 22 -13 13 -17 13 -33 0z"/>
<path d="M1490 901 c1 -26 30 -35 58 -18 15 10 16 -5 1 -20 -8 -8 -5 -11 12
-12 143 -3 198 -13 168 -32 -8 -4 -24 -6 -35 -3 -12 3 -25 1 -29 -6 -4 -6 -15
-8 -26 -5 -11 4 -33 -2 -54 -15 -19 -12 -40 -18 -46 -14 -8 5 -8 1 0 -15 7
-11 19 -21 27 -21 8 0 13 4 10 9 -3 5 16 12 43 16 30 4 52 13 55 21 4 9 11 12
18 7 7 -4 24 -6 37 -4 15 2 21 -1 17 -8 -4 -6 -1 -11 8 -11 8 0 16 -5 18 -11
3 -9 9 -9 24 -1 12 6 26 7 36 1 11 -6 19 -6 23 1 4 6 3 10 -2 9 -30 -5 -35 2
-17 24 10 12 12 16 4 10 -10 -9 -17 -10 -27 -2 -9 8 -13 8 -13 0 0 -6 5 -11
11 -11 5 0 8 -4 4 -9 -7 -12 -65 20 -65 36 0 6 3 13 8 16 4 2 1 2 -5 1 -7 -2
-13 1 -13 5 0 13 58 31 84 27 11 -2 15 -1 9 1 -7 3 -13 12 -13 20 0 14 -2 14
-17 1 -33 -27 -68 -34 -148 -28 -75 5 -80 6 -79 28 1 23 -10 29 -21 12 -3 -5
-15 -10 -26 -10 -11 0 -18 4 -15 8 3 5 -1 9 -9 9 -8 0 -15 -3 -15 -6z"/>
<path d="M2120 900 c-9 -6 -10 -10 -3 -10 6 0 15 5 18 10 8 12 4 12 -15 0z"/>
<path d="M1259 890 c7 -4 12 -10 12 -14 -2 -16 0 -16 14 -2 20 20 19 21 -12
23 -15 0 -21 -2 -14 -7z"/>
<path d="M2137 877 c-18 -11 -42 -17 -59 -15 -16 3 -31 1 -34 -4 -3 -5 0 -7 8
-6 7 2 12 -5 12 -14 -2 -22 9 -23 26 -3 11 13 15 13 21 3 7 -10 9 -9 9 5 0 9
5 17 11 17 5 0 8 -4 5 -8 -8 -13 44 -6 57 7 10 11 5 12 -23 6 -26 -4 -31 -3
-20 4 8 6 24 11 35 11 11 0 27 5 35 10 29 19 -52 6 -83 -13z"/>
<path d="M1590 880 c8 -5 20 -10 25 -10 6 0 3 5 -5 10 -8 5 -19 10 -25 10 -5
0 -3 -5 5 -10z"/>
<path d="M2394 859 c-16 -16 -34 -27 -41 -25 -7 3 -13 1 -13 -5 0 -6 -7 -9
-15 -5 -15 5 -21 -5 -9 -16 6 -7 80 28 89 42 9 14 21 12 39 -6 9 -8 16 -11 16
-5 0 6 -9 20 -19 30 -19 19 -20 19 -47 -10z"/>
<path d="M610 871 c0 -5 -8 -12 -17 -14 -15 -4 -15 -5 -2 -6 9 0 22 6 29 14 9
10 9 15 1 15 -6 0 -11 -4 -11 -9z"/>
<path d="M1178 873 c6 -2 18 -2 25 0 6 3 1 5 -13 5 -14 0 -19 -2 -12 -5z"/>
<path d="M1648 873 c7 -3 16 -2 19 1 4 3 -2 6 -13 5 -11 0 -14 -3 -6 -6z"/>
<path d="M1941 863 c-18 -19 -10 -25 12 -8 10 7 15 15 10 18 -4 3 -14 -2 -22
-10z"/>
<path d="M2233 873 c-20 -7 -15 -22 7 -20 20 1 27 12 13 20 -5 2 -14 2 -20 0z"/>
<path d="M521 854 c0 -11 3 -14 6 -6 3 7 2 16 -1 19 -3 4 -6 -2 -5 -13z"/>
<path d="M745 860 c-3 -6 1 -7 9 -4 18 7 21 14 7 14 -6 0 -13 -4 -16 -10z"/>
<path d="M1102 853 c3 -13 12 -17 31 -16 23 1 26 -1 18 -15 -7 -14 -5 -18 10
-18 10 0 19 3 19 7 0 3 12 18 26 32 25 25 25 25 2 20 -13 -3 -28 -10 -35 -15
-7 -5 -14 -5 -18 2 -4 7 -12 7 -25 0 -16 -8 -18 -8 -14 5 4 8 1 15 -6 15 -6 0
-10 -8 -8 -17z m78 -23 c0 -5 -5 -10 -11 -10 -5 0 -7 5 -4 10 3 6 8 10 11 10
2 0 4 -4 4 -10z"/>
<path d="M1865 860 c3 -5 14 -10 23 -10 15 0 15 2 2 10 -20 13 -33 13 -25 0z"/>
<path d="M1327 849 c7 -7 15 -10 18 -7 3 3 -2 9 -12 12 -14 6 -15 5 -6 -5z"/>
<path d="M1368 853 c6 -2 12 -12 12 -21 0 -15 2 -15 10 -2 15 23 12 30 -12 29
-13 0 -17 -3 -10 -6z"/>
<path d="M1275 840 c3 -5 8 -10 11 -10 2 0 4 5 4 10 0 6 -5 10 -11 10 -5 0 -7
-4 -4 -10z"/>
<path d="M1793 843 c9 -2 23 -2 30 0 6 3 -1 5 -18 5 -16 0 -22 -2 -12 -5z"/>
<path d="M950 830 l-35 -7 32 -2 c17 0 35 4 38 9 3 6 5 9 3 9 -2 -1 -19 -5
-38 -9z"/>
<path d="M1000 835 c0 -7 30 -13 34 -7 3 4 -4 9 -15 9 -10 1 -19 0 -19 -2z"/>
<path d="M1867 829 c7 -7 15 -10 18 -7 3 3 -2 9 -12 12 -14 6 -15 5 -6 -5z"/>
<path d="M2008 833 c7 -3 16 -2 19 1 4 3 -2 6 -13 5 -11 0 -14 -3 -6 -6z"/>
<path d="M2231 824 c0 -11 3 -14 6 -6 3 7 2 16 -1 19 -3 4 -6 -2 -5 -13z"/>
<path d="M1487 818 c-4 -11 6 -15 42 -16 30 -2 41 1 32 7 -7 5 -22 6 -33 3
-11 -3 -23 1 -28 7 -5 10 -8 9 -13 -1z"/>
<path d="M1590 820 c-9 -6 -10 -10 -3 -10 6 0 15 5 18 10 8 12 4 12 -15 0z"/>
<path d="M1446 812 c-3 -5 1 -9 9 -9 8 0 15 4 15 9 0 4 -4 8 -9 8 -6 0 -12 -4
-15 -8z"/>
<path d="M1633 728 c-24 -5 -43 -13 -43 -18 0 -4 -3 -15 -6 -23 -3 -8 2 -17
11 -21 9 -3 14 -2 11 3 -3 5 3 20 14 32 l19 24 1 -25 c1 -23 2 -23 14 -8 7 10
23 21 36 26 21 8 22 9 4 13 -10 3 -38 1 -61 -3z"/>
<path d="M1720 720 c0 -13 11 -13 30 0 12 8 11 10 -7 10 -13 0 -23 -4 -23 -10z"/>
<path d="M1537 703 c-15 -14 -6 -25 9 -12 15 12 16 11 10 -7 -8 -25 8 -74 24
-74 7 0 7 7 -1 21 -6 12 -9 32 -6 45 2 14 -1 25 -10 28 -18 7 -18 7 -26 -1z"/>
<path d="M1465 660 l-30 -8 27 -1 c15 0 30 4 33 9 3 6 5 9 3 9 -2 -1 -16 -5
-33 -9z"/>
<path d="M1327 368 c-2 -7 -3 -29 0 -48 3 -29 2 -32 -7 -15 -9 17 -9 16 -5 -8
4 -19 2 -26 -5 -22 -5 3 -10 -1 -10 -10 0 -9 4 -14 9 -10 6 3 8 -12 5 -37 -4
-38 -3 -41 10 -25 7 9 19 17 27 17 11 0 11 2 1 8 -12 8 -16 44 -10 92 3 21 8
25 33 23 17 -1 22 1 13 4 -10 2 -18 9 -18 14 0 5 -7 9 -15 9 -8 0 -15 -5 -15
-12 0 -6 -3 -8 -6 -5 -4 4 -1 13 6 22 7 9 8 15 2 15 -6 0 -12 -6 -15 -12z"/>
<path d="M1403 373 c9 -2 25 -2 35 0 9 3 1 5 -18 5 -19 0 -27 -2 -17 -5z"/>
<path d="M1385 207 c11 -9 29 -17 40 -18 17 -1 16 -2 -5 -9 -25 -8 -25 -8 -2
-9 16 -1 21 -5 16 -13 -6 -10 -4 -10 8 0 17 14 14 48 -5 49 -7 0 -25 4 -42 8
-29 7 -29 7 -10 -8z"/>
<path d="M1398 63 c7 -3 16 -2 19 1 4 3 -2 6 -13 5 -11 0 -14 -3 -6 -6z"/>
<path d="M1515 29 c-9 -14 -2 -20 14 -10 8 6 9 11 3 15 -6 3 -14 1 -17 -5z"/>
</g>
</svg>
